# xmcd
# Track frame offsets:
# 150
# 17472
# 32739
# 54173
# 71939
# 91475
# 108128
# 124688
# 137472
# 149380
# 165270
# 183828
# 200099
# 216506
# 231701
# 248476
# 262924
# 280790
# 299417
# 313904
# 331468
#
# Disc length: 4454 seconds
# Revision: 0
# Processed by: cddbd v1.5.2PL0 Copyright (c) Steve Scherf et al.
# Submitted via: VisiTrax 2.11.2.271 - For more info visit www.synapsa.com
#
DISCID=38116415
DTITLE=Various Artist - CRS No. 167 - Country Radio Singles
DYEAR=2013
DGENRE=Country
TTITLE0=Harmonators, The - Wherever I Go
TTITLE1=Fitzsimmon, Mark - Bitter Life
TTITLE2=Benfer, Alice - Driving
TTITLE3=Hollis, Jasper - Fine As Wine
TTITLE4=Woodward, Craig - Never Be the Same
TTITLE5=Dozzi - This Time
TTITLE6=Lily, Susan - My Hometown
TTITLE7=Blanch, Arthur - No More Songs to Sing
TTITLE8=Brothers3 - Let the Music Ring Out
TTITLE9=Kilpatrick, Adam - Another Day in Paradise
TTITLE10=Howard, Natalie - Girlfriend, The
TTITLE11=Caswell, Allan - Next Thing That You Hear, The
TTITLE12=Runaway Dixie - All of My Heroes are Gone
TTITLE13=Cook, Kate - Give the Girl a Spanner
TTITLE14=Band if Mates - Band of Mates
TTITLE15=O'Donnell, Katie - On the Inside
TTITLE16=Branch and Dean - ash, The (Theron's Song)
TTITLE17=Wheatley, Lauren - Overrated
TTITLE18=McNaughton, Steve - Cross Country
TTITLE19=Fetch, Mick - Memories pf the Mail
TTITLE20=Smith, Fred - Baa Baa Black Sheep
EXTD=
EXTT0=
EXTT1=
EXTT2=
EXTT3=
EXTT4=
EXTT5=
EXTT6=
EXTT7=
EXTT8=
EXTT9=
EXTT10=
EXTT11=
EXTT12=
EXTT13=
EXTT14=
EXTT15=
EXTT16=
EXTT17=
EXTT18=
EXTT19=
EXTT20=
PLAYORDER=
